<?xml version="1.0" standalone="no"?>
<!DOCTYPE svg PUBLIC "-//W3C//DTD SVG 20010904//EN"
 "http://www.w3.org/TR/2001/REC-SVG-20010904/DTD/svg10.dtd">
<svg version="1.0" xmlns="http://www.w3.org/2000/svg"
 width="378.000000pt" height="378.000000pt" viewBox="0 0 378.000000 378.000000"
 preserveAspectRatio="xMidYMid meet">
<metadata>
Created by potrace 1.14, written by Peter Selinger 2001-2017
</metadata>
<g transform="translate(0.000000,378.000000) scale(0.100000,-0.100000)"
fill="#000000" stroke="none">
<path d="M0 1890 l0 -1890 1890 0 1890 0 0 1890 0 1890 -1890 0 -1890 0 0
-1890z m1879 -2 c-1 -585 -5 -1049 -9 -1033 -9 36 -13 2003 -4 2058 4 20 8 37
10 37 2 0 3 -478 3 -1062z m39 2 c0 -558 -4 -1028 -8 -1045 -4 -16 -8 452 -8
1040 0 589 4 1059 8 1045 4 -14 8 -482 8 -1040z m40 0 c0 -454 -4 -838 -8
-855 -4 -16 -8 368 -8 855 0 487 4 872 8 855 4 -16 8 -401 8 -855z m-119 -2
c-1 -480 -5 -862 -9 -848 -9 29 -13 1627 -4 1683 4 20 8 37 10 37 2 0 4 -393
3 -872z m159 -3 c0 -352 -4 -651 -8 -665 -4 -14 -8 288 -8 670 0 382 4 682 8
665 4 -16 8 -318 8 -670z m-199 -2 c-1 -379 -5 -674 -9 -658 -9 36 -13 1269
-4 1314 4 17 8 31 10 31 2 0 3 -309 3 -687z m-40 5 c-1 -277 -5 -489 -9 -473
-4 17 -8 226 -9 465 -1 386 3 510 15 510 2 0 3 -226 3 -502z m279 2 c0 -250
-4 -468 -8 -485 -4 -16 -8 200 -8 480 0 281 4 499 8 485 4 -14 8 -230 8 -480z
m40 0 c0 -146 -4 -278 -8 -295 -4 -16 -8 116 -8 295 0 179 4 312 8 295 4 -16
8 -149 8 -295z m-359 -2 c-1 -173 -5 -302 -9 -288 -16 51 -10 600 6 600 2 0 4
-141 3 -312z m-39 2 c0 -127 -4 -200 -10 -200 -6 0 -10 71 -10 193 0 170 3
207 17 207 2 0 3 -90 3 -200z m-40 0 c0 -120 -4 -190 -10 -190 -6 0 -10 68
-10 183 0 162 3 197 17 197 2 0 3 -85 3 -190z m480 -5 c0 -123 -4 -195 -10
-195 -6 0 -10 72 -10 195 0 123 4 195 10 195 6 0 10 -72 10 -195z m40 -1 c0
-116 -4 -184 -10 -184 -6 0 -10 70 -10 191 0 124 3 188 10 184 6 -4 10 -78 10
-191z m-560 6 c0 -113 -4 -180 -10 -180 -6 0 -10 67 -10 180 0 113 4 180 10
180 6 0 10 -67 10 -180z m600 0 c0 -113 -4 -180 -10 -180 -6 0 -10 67 -10 180
0 113 4 180 10 180 6 0 10 -67 10 -180z m-640 0 c0 -107 -4 -170 -10 -170 -6
0 -10 63 -10 170 0 107 4 170 10 170 6 0 10 -63 10 -170z m680 0 c0 -107 -4
-170 -10 -170 -6 0 -10 63 -10 170 0 107 4 170 10 170 6 0 10 -63 10 -170z
m-720 0 c0 -100 -4 -160 -10 -160 -6 0 -10 60 -10 160 0 100 4 160 10 160 6 0
10 -60 10 -160z m760 0 c0 -100 -4 -160 -10 -160 -6 0 -10 60 -10 160 0 100 4
160 10 160 6 0 10 -60 10 -160z m-800 -6 c0 -101 -3 -153 -10 -149 -6 4 -10
67 -10 156 0 93 4 149 10 149 6 0 10 -59 10 -156z m840 7 c0 -89 -4 -152 -10
-156 -7 -4 -10 48 -10 149 0 97 4 156 10 156 6 0 10 -56 10 -149z m-880 -7 c0
-94 -4 -143 -10 -139 -6 4 -10 63 -10 146 0 86 4 139 10 139 6 0 10 -55 10
-146z m920 7 c0 -83 -4 -142 -10 -146 -6 -4 -10 45 -10 139 0 91 4 146 10 146
6 0 10 -53 10 -139z m40 -7 c0 -83 -4 -134 -10 -134 -6 0 -10 54 -10 141 0 91
4 138 10 134 6 -4 10 -62 10 -141z m-1040 6 c0 -80 -4 -130 -10 -130 -6 0 -10
48 -10 123 0 109 3 137 17 137 2 0 3 -58 3 -130z m40 -5 c0 -83 -4 -135 -10
-135 -6 0 -10 52 -10 135 0 83 4 135 10 135 6 0 10 -52 10 -135z m1040 -1 c0
-76 -4 -124 -10 -124 -6 0 -10 50 -10 131 0 84 4 128 10 124 6 -4 10 -58 10
-131z m-1120 6 c0 -73 -4 -120 -10 -120 -6 0 -10 47 -10 120 0 73 4 120 10
120 6 0 10 -47 10 -120z m1160 0 c0 -73 -4 -120 -10 -120 -6 0 -10 47 -10 120
0 73 4 120 10 120 6 0 10 -47 10 -120z m-1200 0 c0 -67 -4 -110 -10 -110 -6 0
-10 43 -10 110 0 67 4 110 10 110 6 0 10 -43 10 -110z m1240 0 c0 -67 -4 -110
-10 -110 -6 0 -10 43 -10 110 0 67 4 110 10 110 6 0 10 -43 10 -110z m-1280 0
c0 -60 -4 -100 -10 -100 -6 0 -10 40 -10 100 0 60 4 100 10 100 6 0 10 -40 10
-100z m1320 0 c0 -60 -4 -100 -10 -100 -6 0 -10 40 -10 100 0 60 4 100 10 100
6 0 10 -40 10 -100z m-1360 0 c0 -53 -4 -90 -10 -90 -6 0 -10 37 -10 90 0 53
4 90 10 90 6 0 10 -37 10 -90z m1400 1 c0 -50 -4 -93 -10 -96 -6 -4 -10 28
-10 89 0 57 4 96 10 96 6 0 10 -36 10 -89z m-1440 -7 c0 -54 -4 -83 -10 -79
-5 3 -10 42 -10 86 0 46 4 79 10 79 6 0 10 -35 10 -86z m1480 7 c0 -44 -4 -83
-10 -86 -6 -4 -10 25 -10 79 0 51 4 86 10 86 6 0 10 -33 10 -79z m-1560 -1 c0
-40 -4 -70 -10 -70 -11 0 -14 123 -3 133 12 13 13 7 13 -63z m40 -5 c0 -43 -4
-75 -10 -75 -6 0 -10 32 -10 75 0 43 4 75 10 75 6 0 10 -32 10 -75z m1560 0
c0 -43 -4 -75 -10 -75 -6 0 -10 32 -10 75 0 43 4 75 10 75 6 0 10 -32 10 -75z
m40 -1 c0 -36 -4 -64 -10 -64 -6 0 -10 30 -10 71 0 44 4 68 10 64 6 -3 10 -35
10 -71z m-1680 6 c0 -33 -4 -60 -10 -60 -6 0 -10 27 -10 60 0 33 4 60 10 60 6
0 10 -27 10 -60z m1720 0 c0 -33 -4 -60 -10 -60 -6 0 -10 27 -10 60 0 33 4 60
10 60 6 0 10 -27 10 -60z m-1760 0 c0 -27 -4 -50 -10 -50 -5 0 -10 23 -10 50
0 28 5 50 10 50 6 0 10 -22 10 -50z m1800 0 c0 -27 -4 -50 -10 -50 -5 0 -10
23 -10 50 0 28 5 50 10 50 6 0 10 -22 10 -50z m-1840 0 c0 -22 -4 -40 -10 -40
-5 0 -10 18 -10 40 0 22 5 40 10 40 6 0 10 -18 10 -40z m1880 0 c0 -22 -4 -40
-10 -40 -5 0 -10 18 -10 40 0 22 5 40 10 40 6 0 10 -18 10 -40z m-1920 0 c0
-16 -4 -30 -10 -30 -5 0 -10 14 -10 30 0 17 5 30 10 30 6 0 10 -13 10 -30z
m1960 1 c0 -17 -4 -33 -10 -36 -6 -4 -10 8 -10 29 0 20 5 36 10 36 6 0 10 -13
10 -29z m-2000 -7 c0 -14 -4 -23 -10 -19 -5 3 -10 15 -10 26 0 10 5 19 10 19
6 0 10 -12 10 -26z m2040 7 c0 -11 -4 -23 -10 -26 -6 -4 -10 5 -10 19 0 14 5
26 10 26 6 0 10 -9 10 -19z m40 -7 c0 -8 -4 -14 -10 -14 -5 0 -10 9 -10 21 0
11 5 17 10 14 6 -3 10 -13 10 -21z m-2160 6 c0 -5 -5 -10 -11 -10 -5 0 -7 5
-4 10 3 6 8 10 11 10 2 0 4 -4 4 -10z m40 -5 c0 -8 -4 -15 -10 -15 -5 0 -10 7
-10 15 0 8 5 15 10 15 6 0 10 -7 10 -15z m2155 5 c3 -5 1 -10 -4 -10 -6 0 -11
5 -11 10 0 6 2 10 4 10 3 0 8 -4 11 -10z"/>
</g>
</svg>
